<svg version="1.2" xmlns="http://www.w3.org/2000/svg" viewBox="0 0 24 24" width="24" height="24">
	<title>github</title>
	<style>
		.s0 { fill: none;stroke: #ffdead;stroke-linecap: round;stroke-linejoin: round;stroke-width: 2 } 
	</style>
	<path class="s0" d="m9 19c-5 1.5-5-2.5-7-3m14 6v-3.9q0-0.3 0-0.7-0.1-0.3-0.2-0.7-0.1-0.3-0.3-0.6-0.2-0.3-0.4-0.6c3.1-0.3 6.4-1.5 6.4-7q0-0.5-0.1-1-0.1-0.5-0.3-1-0.2-0.5-0.5-0.9-0.2-0.5-0.6-0.8 0.2-0.5 0.2-1 0.1-0.4 0.1-0.9 0-0.5-0.1-1-0.1-0.5-0.3-0.9c-0.1-0.3-1.2-0.4-3.9 1.5q-0.9-0.3-1.7-0.4-0.9-0.1-1.8-0.1-0.9 0-1.8 0.1-0.8 0.1-1.7 0.4c-2.7-1.9-3.9-1.5-3.9-1.5q-0.2 0.4-0.3 0.9-0.1 0.5-0.1 1 0 0.5 0.1 0.9 0 0.5 0.2 1-0.4 0.3-0.6 0.8-0.3 0.4-0.5 0.9-0.2 0.5-0.3 1-0.1 0.5-0.1 1.1c0 5.4 3.3 6.6 6.4 6.9q-0.2 0.3-0.4 0.6-0.2 0.3-0.3 0.6-0.1 0.4-0.2 0.7 0 0.4 0 0.7v3.9"/>
</svg>