<svg version="1.2" xmlns="http://www.w3.org/2000/svg" viewBox="0 0 24 24" width="24" height="24">
	<title>instagram</title>
	<style>
		.s0 { fill: none;stroke: #ffdead;stroke-linecap: round;stroke-linejoin: round;stroke-width: 2 } 
	</style>
	<path fill-rule="evenodd" class="s0" d="m7 2h10c2.8 0 5 2.2 5 5v10c0 2.8-2.2 5-5 5h-10c-2.8 0-5-2.2-5-5v-10c0-2.8 2.2-5 5-5z"/>
	<path class="s0" d="m16 11.4c0.3 1.7-0.6 3.4-2.2 4.1-1.5 0.8-3.4 0.5-4.6-0.7-1.2-1.2-1.5-3.1-0.7-4.6 0.7-1.6 2.4-2.5 4.1-2.2q0.7 0.1 1.2 0.4 0.6 0.3 1.1 0.7 0.4 0.5 0.7 1.1 0.3 0.5 0.4 1.2z"/>
	<path fill-rule="evenodd" class="s0" d="m17.5 6.5"/>
</svg>